<svg width="24" height="24" viewBox="0 0 24 24" fill="none" xmlns="http://www.w3.org/2000/svg">
<g id="Package">
<path id="icon" d="M12.4472 3.34166C12.1657 3.20089 11.8343 3.20089 11.5528 3.34166L9.87978 4.17816L16.6199 7.92268L19.0433 6.63971L12.4472 3.34166ZM14.5112 9.03907L7.71228 5.26191L4.95668 6.63971L12 10.3685L14.5112 9.03907ZM4 15.8232C4 16.1864 4.19689 16.521 4.51436 16.6974L11 20.3005V12.1021L4 8.39622V15.8232ZM19.4856 16.6974C19.8031 16.521 20 16.1864 20 15.8232V8.39622L13 12.1021V20.3005L19.4856 16.6974ZM10.6584 1.5528C11.5029 1.13051 12.4971 1.13051 13.3416 1.5528L20.3416 5.0528C21.358 5.56098 22 6.59977 22 7.73608V15.8232C22 16.9127 21.4093 17.9166 20.4569 18.4457L13.4569 22.3346C12.5509 22.8379 11.4491 22.8379 10.5431 22.3346L3.54307 18.4457C2.59068 17.9166 2 16.9127 2 15.8232V7.73608C2 6.59977 2.642 5.56098 3.65836 5.0528L10.6584 1.5528Z" fill="#5C67ED"/>
</g>
</svg>
